<?xml version="1.0" standalone="no"?>
<!DOCTYPE svg PUBLIC "-//W3C//DTD SVG 20010904//EN"
 "http://www.w3.org/TR/2001/REC-SVG-20010904/DTD/svg10.dtd">
<svg version="1.0" xmlns="http://www.w3.org/2000/svg"
 width="1200.000000pt" height="900.000000pt" viewBox="0 0 1200.000000 900.000000"
 preserveAspectRatio="xMidYMid meet">

<g transform="translate(0.000000,900.000000) scale(0.100000,-0.100000)"
fill="#000000" stroke="none">
<path d="M5395 7973 c-27 -14 -75 -50 -106 -80 -58 -57 -77 -58 -65 -5 5 23
-1 19 -47 -29 -72 -75 -97 -129 -97 -205 0 -60 0 -60 -45 -92 -77 -54 -121
-151 -134 -296 -14 -147 17 -582 54 -761 9 -43 15 -78 13 -80 -2 -1 -44 23
-94 55 -128 82 -339 202 -403 229 -83 35 -166 27 -268 -25 -175 -89 -409 -231
-453 -274 -43 -42 -49 -54 -78 -160 -48 -174 -82 -330 -82 -380 0 -32 12 -70
41 -132 l42 -87 -92 -98 c-61 -65 -104 -123 -130 -173 -58 -111 -340 -733
-371 -820 -27 -72 -210 -818 -267 -1085 -25 -119 -27 -147 -26 -330 2 -263 41
-1012 54 -1037 6 -11 39 -57 74 -101 134 -174 197 -291 241 -443 14 -49 43
-124 64 -166 l39 -78 -38 0 c-38 0 -664 -37 -1105 -65 -132 -9 -242 -18 -245
-20 -2 -3 1820 -5 4050 -4 2260 1 4039 5 4019 10 -19 4 -269 22 -555 39 -286
17 -558 33 -604 36 l-85 6 45 36 c120 98 172 177 190 293 13 87 1 166 -39 248
-29 58 -143 187 -186 210 -14 8 -26 19 -26 25 0 6 42 153 94 326 52 173 153
515 226 760 72 245 181 609 242 810 134 444 133 437 119 473 -15 39 -47 50
-288 102 -114 24 -365 78 -557 120 -193 42 -364 76 -382 77 -45 2 -75 -21
-106 -78 -14 -27 -106 -305 -203 -619 -304 -984 -369 -1187 -382 -1192 -7 -3
-80 17 -161 45 -128 44 -177 67 -377 183 -127 73 -275 156 -329 184 l-100 51
4 109 c9 219 12 206 -104 424 -57 106 -62 136 -76 399 -6 117 -13 219 -16 225
-2 7 -20 22 -38 35 l-34 23 1 212 c0 244 -11 314 -73 463 l-38 92 39 6 c67 11
213 69 240 95 22 23 27 38 33 111 5 72 10 88 29 102 53 40 57 48 57 96 0 42 3
49 31 65 33 18 33 23 13 95 -6 19 -3 22 23 22 45 0 145 29 166 48 16 14 18 26
13 66 -5 44 0 60 55 180 34 72 69 152 80 178 l19 48 -23 14 c-12 8 -43 18 -69
21 l-47 7 20 27 c16 22 22 55 31 198 l12 171 82 4 c72 4 92 9 175 51 52 26
114 64 139 85 l44 39 -109 -5 -109 -5 57 56 c38 36 69 79 90 124 31 67 32 71
35 231 2 89 1 162 -2 162 -3 0 -45 -20 -94 -44 -108 -55 -302 -121 -288 -98 3
5 50 42 106 82 55 40 99 74 97 76 -1 1 -38 -4 -82 -12 -175 -29 -315 -16 -590
53 l-150 38 100 6 c55 4 141 7 190 9 60 1 83 4 70 10 -11 4 -112 30 -225 57
-183 43 -200 49 -160 53 60 7 39 14 -120 40 -155 25 -374 27 -470 4 -35 -8
-104 -31 -153 -50 -49 -20 -91 -33 -94 -31 -10 10 9 47 49 98 22 28 38 52 36
54 -1 2 -25 -8 -53 -22z m1779 -455 c-43 -102 -110 -195 -178 -245 -59 -44
-254 -148 -262 -140 -2 2 51 48 119 103 138 112 214 187 290 290 28 38 53 67
55 63 2 -4 -9 -36 -24 -71z m-783 -126 c-21 -30 -78 -84 -121 -115 -25 -18
-24 -18 47 -12 70 5 125 23 193 65 32 20 31 18 -12 -23 -26 -24 -68 -54 -94
-66 -87 -41 -224 -25 -369 44 l-50 23 93 1 c106 1 170 20 260 75 69 43 79 45
53 8z m-739 -135 c35 -56 148 -181 148 -165 -1 7 -16 52 -34 101 -35 92 -27
100 17 19 38 -70 57 -154 57 -252 l-1 -85 -27 34 c-15 19 -55 69 -90 110 -34
42 -72 95 -83 119 -22 44 -38 162 -23 162 5 -1 21 -20 36 -43z m963 -82 c-44
-37 -160 -57 -195 -35 -12 7 -8 10 15 11 17 0 64 11 105 24 98 30 112 30 75 0z
m-325 -72 c193 -74 298 -108 398 -129 l82 -17 -6 -106 c-12 -204 -20 -262 -43
-285 -38 -37 -91 -27 -206 37 -55 32 -111 57 -125 57 -14 -1 -61 -16 -104 -34
-77 -32 -78 -33 -46 -39 18 -4 47 -7 64 -8 17 0 40 -4 51 -9 18 -7 15 -10 -22
-27 l-42 -20 -251 71 c-137 39 -250 76 -250 81 0 6 12 42 26 82 26 70 29 74
103 124 134 91 157 124 176 247 8 50 -10 53 195 -25z m782 -84 c-45 -21 -153
-39 -139 -23 11 12 124 42 157 42 21 0 17 -3 -18 -19z m-1639 -216 c45 -23
109 -85 124 -122 10 -22 12 -50 8 -85 l-7 -52 79 -37 c43 -20 83 -37 89 -37 6
0 16 29 23 65 7 36 17 65 22 65 5 0 26 -7 46 -15 21 -8 121 -40 223 -71 102
-31 187 -58 189 -59 1 -2 -3 -60 -10 -129 -9 -97 -10 -132 -1 -151 16 -34 84
-65 144 -65 67 0 102 34 169 164 33 65 60 106 69 106 31 0 40 -21 33 -79 -4
-47 0 -72 26 -148 17 -49 31 -97 31 -105 0 -26 -48 -38 -157 -38 l-107 0 32
-33 c24 -25 32 -42 32 -69 l0 -36 -82 -27 c-108 -36 -116 -45 -41 -45 34 0 65
-5 68 -11 15 -23 -8 -56 -65 -94 -56 -37 -59 -40 -34 -43 l27 -4 -7 -70 c-4
-50 -12 -75 -24 -84 -25 -18 -193 -74 -223 -74 -42 0 -343 181 -527 317 -47
35 -79 66 -87 87 -17 39 -35 246 -35 391 l0 102 -44 -10 c-34 -8 -52 -7 -77 4
-50 20 -99 69 -121 119 -25 56 -35 206 -19 268 29 107 136 155 234 105z m-908
-238 c133 -50 379 -193 379 -220 0 -5 -12 -14 -25 -19 -22 -7 -50 6 -202 98
-97 58 -194 110 -216 115 -22 5 -90 6 -150 3 -112 -5 -138 3 -91 28 67 36 204
33 305 -5z m20 -429 c475 -360 635 -489 714 -572 94 -99 136 -178 151 -279 5
-38 10 -265 10 -502 0 -426 0 -433 -20 -433 -19 0 -20 7 -20 128 -1 70 -5 226
-10 347 -14 334 -43 468 -131 599 -70 105 -84 111 -40 15 38 -82 64 -159 54
-159 -3 0 -42 24 -86 53 -45 30 -176 111 -292 182 -115 70 -262 160 -325 198
-128 79 -335 217 -512 344 -101 72 -119 89 -128 121 -21 78 -17 86 61 117 l71
27 71 -49 c192 -131 517 -357 562 -390 l50 -37 -35 40 c-20 21 -112 120 -205
219 -195 207 -226 242 -205 230 8 -5 128 -95 265 -199z m770 132 c17 -9 42
-18 57 -22 26 -6 26 -7 32 -113 10 -178 25 -302 40 -331 8 -15 59 -103 115
-196 56 -93 101 -178 101 -188 0 -11 -7 -32 -16 -49 -14 -27 -163 -249 -167
-249 -1 0 -3 38 -4 85 -7 231 -70 340 -381 649 l-159 158 54 137 c30 75 59
140 63 145 5 5 12 -18 16 -52 l7 -62 29 18 c17 9 53 43 80 75 l51 58 26 -24
c14 -14 40 -31 56 -39z m-965 -604 c30 -14 137 -71 238 -126 l182 -101 30 -61
c68 -140 112 -360 114 -566 1 -131 0 -139 -39 -265 l-40 -130 -5 155 -5 155
-80 137 c-44 75 -81 135 -83 134 -2 -2 4 -68 12 -147 8 -79 18 -180 22 -224
l6 -80 -79 130 c-122 201 -258 414 -261 411 -1 -2 26 -97 62 -212 122 -396
479 -1625 473 -1630 -1 -1 -119 121 -262 272 -142 150 -260 272 -262 271 -4
-5 144 -463 160 -494 21 -41 46 -53 210 -109 82 -28 170 -67 232 -103 156 -91
163 -94 274 -107 96 -11 113 -16 215 -68 l111 -57 125 0 c99 0 141 -5 200 -23
72 -21 76 -23 102 -71 15 -28 28 -55 28 -62 0 -23 -101 -121 -153 -149 l-54
-28 -272 34 c-149 19 -271 38 -271 41 0 4 65 49 144 100 80 51 143 95 141 97
-1 2 -218 -51 -480 -118 -263 -66 -480 -119 -482 -116 -5 5 136 103 376 260
106 70 192 129 190 131 -3 2 -72 -9 -154 -25 -106 -20 -258 -62 -514 -144
-201 -63 -366 -114 -367 -113 0 1 -15 178 -33 392 -38 469 -88 1053 -98 1150
l-7 70 -9 -65 c-16 -122 -88 -585 -122 -793 -19 -114 -35 -212 -35 -217 0 -46
-77 117 -85 181 -3 19 -14 351 -25 739 -12 388 -24 782 -28 875 l-7 170 -39
-105 c-66 -180 -269 -690 -273 -686 -5 5 156 568 239 836 l63 205 253 127
c326 164 329 165 422 122z m1677 -306 c5 -7 18 -33 28 -56 l19 -44 -50 -46
c-27 -25 -69 -64 -93 -86 l-43 -41 7 40 c11 67 52 174 80 210 28 38 37 42 52
23z m-172 -125 c-3 -10 -17 -121 -31 -248 -29 -271 -82 -695 -127 -1025 l-32
-235 -28 -3 c-27 -3 -28 -2 -23 30 18 105 128 996 146 1173 31 319 28 302 58
314 39 14 45 13 37 -6z m-740 -128 c12 -14 65 -124 116 -243 l94 -217 5 -153
c5 -149 6 -154 30 -174 19 -15 34 -19 63 -15 27 4 37 2 34 -6 -2 -7 -46 -187
-97 -402 -50 -214 -97 -408 -102 -430 l-11 -40 -19 90 c-133 615 -168 781
-173 822 -3 26 1 109 10 183 24 208 30 450 12 538 -12 61 -12 72 0 72 8 0 25
-11 38 -25z m443 -272 c-6 -165 -9 -189 -46 -328 l-40 -150 -1 308 -1 308 43
19 c23 10 44 19 47 19 3 1 2 -79 -2 -176z m2915 -167 c587 -125 790 -170 779
-174 -10 -3 -122 9 -692 78 -179 21 -349 40 -379 42 -54 3 -55 3 -67 -32 -7
-19 -89 -285 -183 -590 -188 -615 -573 -1848 -591 -1895 l-12 -30 -24 28 c-13
15 -24 37 -24 48 0 12 48 172 106 357 130 412 125 395 379 1212 279 897 270
868 293 929 27 68 48 91 84 91 16 0 165 -29 331 -64z m34 -1133 c29 -44 23
-205 -10 -308 -67 -203 -169 -285 -213 -170 -44 116 25 384 125 484 31 31 76
27 98 -6z m-1798 -355 c89 -50 159 -93 157 -95 -4 -5 -358 117 -370 127 -4 5
-5 22 -1 40 9 43 19 40 214 -72z m413 -248 c114 -24 284 -76 293 -90 11 -19
-25 -22 -103 -11 -104 15 -412 84 -412 92 0 12 46 28 83 28 22 1 84 -8 139
-19z m-51 -272 c72 -46 145 -95 162 -110 l32 -28 -75 31 c-108 43 -242 90
-247 86 -2 -3 40 -43 94 -89 54 -47 125 -110 158 -140 59 -54 59 -55 36 -67
-21 -12 -28 -9 -65 18 -47 36 -236 135 -243 128 -13 -14 38 -76 123 -149 l96
-82 -28 -23 c-50 -40 -69 -39 -178 6 -171 72 -158 71 -273 18 l-99 -47 -202 0
c-180 0 -207 2 -257 21 -31 12 -59 28 -62 36 -13 33 63 254 106 312 14 18 67
31 376 90 198 38 373 69 388 70 19 1 70 -25 158 -81z m-1581 -508 c300 -5 807
-14 1127 -20 320 -6 588 -13 596 -16 23 -8 31 -54 13 -72 -13 -13 -138 -13
-1118 1 -1147 18 -1342 23 -1369 38 -18 9 -33 54 -24 69 8 12 97 12 775 0z
m2988 -125 c-16 -16 -735 -135 -948 -156 -227 -23 -351 -23 -1085 6 -203 8
-599 24 -880 35 -280 11 -538 23 -572 26 l-63 6 0 34 0 34 63 0 c35 0 201 -5
368 -10 1635 -54 1778 -56 2119 -31 157 11 409 27 560 36 151 8 295 17 320 18
86 6 123 7 118 2z m-4043 -112 c-55 -52 -122 -111 -150 -129 -76 -50 -349
-202 -355 -197 -3 2 42 50 100 106 88 85 125 113 230 172 159 89 264 145 270
144 3 0 -40 -43 -95 -96z m-586 -2 c-51 -39 -309 -187 -309 -177 0 14 124 97
214 143 106 55 134 65 95 34z"/>
<path d="M5291 6741 c-20 -20 -37 -78 -27 -89 4 -3 13 4 22 16 24 35 49 44 92
33 21 -6 46 -17 57 -24 17 -13 15 -16 -33 -31 -69 -23 -112 -72 -112 -128 0
-37 6 -47 50 -90 27 -26 59 -48 70 -48 19 0 20 2 5 30 -28 54 -16 93 55 175
22 25 40 52 40 60 0 22 -50 74 -91 95 -49 26 -103 26 -128 1z"/>
</g>
</svg>
