<?xml version="1.0" encoding="utf-8"?>
<!-- Generator: Adobe Illustrator 18.0.0, SVG Export Plug-In . SVG Version: 6.00 Build 0)  -->
<!DOCTYPE svg PUBLIC "-//W3C//DTD SVG 1.1//EN" "http://www.w3.org/Graphics/SVG/1.1/DTD/svg11.dtd">
<svg version="1.1" id="Icon_Set" xmlns="http://www.w3.org/2000/svg" xmlns:xlink="http://www.w3.org/1999/xlink" x="0px" y="0px"
	 viewBox="0 0 256 256" style="enable-background:new 0 0 256 256;" xml:space="preserve">
<style type="text/css">
	.st0{fill:#484771;}
	.st1{fill:#F1C48B;}
	.st2{fill:#D5E6F7;}
	.st3{fill:#A0D1F2;}
	.st4{fill:#FD919F;}
	.st5{fill:#E0667D;}
	.st6{fill:#504774;}
	.st7{fill:#7BACF1;}
	.st8{fill:#FFFFFF;}
	.st9{fill:#D4E7F8;}
	.st10{fill:#A3D0F1;}
	.st11{fill:#4C4372;}
	.st12{fill:#7BABF3;}
	.st13{fill:#FD919E;}
	.st14{fill:#D3E6F8;}
	.st15{fill:#E8677D;}
	.st16{fill:#A4CFF2;}
</style>
<g>
	<g>
		<circle class="st1" cx="128" cy="128" r="103.873"/>
	</g>
	<g>
		<path class="st8" d="M128,43.252L128,43.252c-15.934,0-28.851,12.917-28.851,28.851v18.597c0,15.934,12.917,28.851,28.851,28.851
			l0,0c15.934,0,28.851-12.917,28.851-28.851V72.104C156.851,56.169,143.934,43.252,128,43.252z"/>
	</g>
	<g>
		<path class="st9" d="M128,43.252L128,43.252c-1.577,0-3.123,0.131-4.631,0.375c13.732,2.216,24.22,14.119,24.22,28.477v18.597
			c0,14.357-10.488,26.26-24.22,28.476c1.508,0.243,3.054,0.375,4.631,0.375h0c15.934,0,28.851-12.917,28.851-28.851V72.104
			C156.851,56.169,143.934,43.252,128,43.252z"/>
	</g>
	<g>
		<path class="st10" d="M184.868,188.192H71.132v-34.963c0-11.985,9.716-21.701,21.701-21.701h70.333
			c11.985,0,21.701,9.716,21.701,21.701V188.192z"/>
	</g>
	<g>
		<path class="st7" d="M163.166,131.527h-10.385c11.985,0,21.701,9.716,21.701,21.701v34.963h10.385v-34.963
			C184.868,141.243,175.152,131.527,163.166,131.527z"/>
	</g>
	<g>
		<path class="st11" d="M184.867,191.192H71.132c-1.657,0-3-1.343-3-3v-34.964c0-13.62,11.081-24.701,24.701-24.701h70.333
			c13.62,0,24.701,11.081,24.701,24.701v34.964C187.867,189.85,186.524,191.192,184.867,191.192z M74.132,185.192h107.735v-31.964
			c0-10.312-8.39-18.701-18.701-18.701H92.833c-10.312,0-18.701,8.39-18.701,18.701V185.192z"/>
	</g>
	<g>
		<path class="st9" d="M138.385,131.528v-13.91c-3.223,1.434-6.723,2.228-10.385,2.228c-3.662,0-7.162-0.794-10.385-2.228v13.909
			L128,155.359L138.385,131.528z"/>
	</g>
	<g>
		<polygon class="st7" points="120.882,139.025 128,155.359 135.118,139.025 120.882,139.025 		"/>
	</g>
	<g>
		<path class="st11" d="M128,158.358c-1.193,0-2.273-0.707-2.75-1.802l-7.118-16.333c-0.404-0.927-0.314-1.996,0.24-2.842
			c0.555-0.847,1.498-1.356,2.51-1.356h14.236c1.012,0,1.955,0.51,2.51,1.356c0.554,0.846,0.645,1.915,0.24,2.842l-7.118,16.333
			C130.273,157.651,129.193,158.358,128,158.358z M125.462,142.025L128,147.85l2.538-5.824H125.462z"/>
	</g>
	<g>
		<path class="st9" d="M156.88,90.758V73c0-0.38-0.014-0.756-0.029-1.132h4.512c5.529,0,10.011,4.482,10.011,10.011
			s-4.482,10.011-10.011,10.011h-4.512C156.866,91.514,156.88,91.138,156.88,90.758z"/>
	</g>
	<g>
		<path class="st11" d="M161.362,94.89h-4.511c-0.814,0-1.594-0.331-2.159-0.918c-0.565-0.586-0.868-1.377-0.839-2.191
			c0.014-0.387,0.026-0.703,0.026-1.022V73c0-0.319-0.013-0.636-0.023-0.952c-0.03-0.814,0.271-1.641,0.837-2.227
			c0.565-0.587,1.344-0.953,2.158-0.953h4.511c7.174,0,13.011,5.837,13.011,13.011S168.536,94.89,161.362,94.89z M159.88,88.89
			h1.482c3.866,0,7.011-3.145,7.011-7.011s-3.145-7.011-7.011-7.011h-1.482V88.89z"/>
	</g>
	<g>
		<path class="st9" d="M99.12,90.758V73c0-0.38,0.014-0.756,0.029-1.132h-4.512c-5.529,0-10.011,4.482-10.011,10.011
			S89.108,91.89,94.637,91.89h4.512C99.134,91.514,99.12,91.138,99.12,90.758z"/>
	</g>
	<g>
		<path class="st11" d="M99.148,94.89h-4.511c-7.174,0-13.011-5.837-13.011-13.011s5.836-13.011,13.011-13.011h4.511
			c0.815,0,1.595,0.332,2.161,0.919c0.566,0.587,0.868,1.379,0.837,2.194c-0.013,0.338-0.026,0.677-0.026,1.019v17.758
			c0,0.342,0.014,0.681,0.026,1.019c0.03,0.815-0.271,1.607-0.837,2.194C100.744,94.558,99.964,94.89,99.148,94.89z M94.637,74.868
			c-3.866,0-7.011,3.145-7.011,7.011s3.145,7.011,7.011,7.011h1.483V74.868H94.637z"/>
	</g>
	<g>
		<path class="st11" d="M128,158.358L128,158.358c-1.193,0-2.273-0.707-2.75-1.802l-10.385-23.831
			c-0.165-0.378-0.25-0.786-0.25-1.198v-13.909c0-1.016,0.514-1.962,1.366-2.516c0.853-0.554,1.927-0.636,2.854-0.226
			c5.877,2.613,12.454,2.613,18.333,0c0.928-0.411,2.001-0.329,2.854,0.226c0.852,0.554,1.365,1.5,1.365,2.516v13.909
			c0,0.412-0.085,0.82-0.25,1.198l-10.386,23.831C130.273,157.651,129.193,158.358,128,158.358z M120.615,130.902L128,147.85
			l7.386-16.947v-9.039c-4.821,1.307-9.95,1.307-14.771,0V130.902z"/>
	</g>
	<g>
		<path class="st11" d="M128,191.192c-1.657,0-3-1.343-3-3v-32.834c0-1.657,1.343-3,3-3c1.657,0,3,1.343,3,3v32.834
			C131,189.85,129.657,191.192,128,191.192z"/>
	</g>
	<g>
		<polygon class="st7" points="117.615,131.527 93.025,144.192 128,155.359 		"/>
	</g>
	<g>
		<polygon class="st7" points="138.385,131.527 162.975,144.192 128,155.359 		"/>
	</g>
	<g>
		<path class="st11" d="M128,158.358c-0.305,0-0.612-0.046-0.912-0.143L92.113,147.05c-1.156-0.369-1.976-1.398-2.077-2.607
			c-0.101-1.21,0.537-2.361,1.616-2.917l24.589-12.665c0.737-0.378,1.6-0.437,2.38-0.159c0.781,0.278,1.413,0.867,1.744,1.628
			l10.385,23.831c0.471,1.079,0.266,2.335-0.523,3.209C129.648,158.01,128.834,158.358,128,158.358z M100.845,143.54l21.76,6.946
			l-6.461-14.826L100.845,143.54z"/>
	</g>
	<g>
		<path class="st11" d="M128,158.358c-0.835,0-1.649-0.349-2.227-0.989c-0.79-0.874-0.994-2.13-0.523-3.209l10.386-23.831
			c0.331-0.761,0.962-1.35,1.743-1.628s1.643-0.221,2.381,0.159l24.589,12.665c1.079,0.556,1.717,1.707,1.615,2.917
			c-0.101,1.209-0.921,2.238-2.077,2.607l-34.974,11.166C128.612,158.313,128.305,158.358,128,158.358z M139.857,135.66
			l-6.462,14.826l21.76-6.947L139.857,135.66z"/>
	</g>
	<g>
		<path class="st11" d="M128,122.552c-17.563,0-31.852-14.288-31.852-31.851V72.104c0-17.563,14.289-31.852,31.852-31.852
			c17.563,0,31.852,14.288,31.852,31.852v18.598C159.852,108.264,145.563,122.552,128,122.552z M128,46.252
			c-14.254,0-25.852,11.597-25.852,25.852v18.598c0,14.254,11.597,25.851,25.852,25.851c14.255,0,25.852-11.597,25.852-25.851
			V72.104C153.852,57.849,142.255,46.252,128,46.252z"/>
	</g>
	<g>
		<g>
			<path class="st7" d="M138.385,45.186c-0.001,0.077-0.279,26.676,18.46,26.682C156.747,59.698,149.116,49.33,138.385,45.186z"/>
		</g>
		<g>
			<path class="st7" d="M99.155,71.868c34.473-0.003,39.217-26.61,39.23-26.682c-3.223-1.245-6.723-1.934-10.385-1.934
				C112.145,43.252,99.282,56.043,99.155,71.868z"/>
		</g>
	</g>
	<g>
		<g>
			<path class="st11" d="M156.846,74.868L156.846,74.868c-5.275-0.002-9.735-1.813-13.259-5.382
				c-8.306-8.414-8.209-23.691-8.201-24.338c0.013-0.982,0.505-1.896,1.319-2.446c0.813-0.552,1.846-0.668,2.762-0.314
				c12.272,4.739,20.272,16.302,20.379,29.456c0.007,0.8-0.307,1.569-0.87,2.138C158.412,74.549,157.646,74.868,156.846,74.868z
				 M141.755,50.206c0.592,4.514,2.129,11.055,6.119,15.083c1.633,1.648,3.524,2.717,5.728,3.228
				C152.556,60.907,148.218,54.242,141.755,50.206z"/>
		</g>
		<g>
			<path class="st11" d="M99.155,74.868c-0.8,0-1.567-0.319-2.13-0.887c-0.563-0.568-0.876-1.338-0.87-2.138
				c0.14-17.42,14.425-31.592,31.845-31.592c3.938,0,7.796,0.719,11.466,2.136c1.339,0.518,2.124,1.911,1.872,3.325
				C141.286,46.004,135.722,74.865,99.155,74.868z M128,46.252c-13.086,0-23.993,9.854-25.633,22.532
				c23.148-1.233,30.379-15.694,32.382-21.637C132.555,46.553,130.294,46.252,128,46.252z"/>
		</g>
	</g>
	<g>
		<rect x="99.149" y="72.103" class="st4" width="57.697" height="19.286"/>
	</g>
	<g>
		<rect x="147.524" y="72.103" class="st5" width="9.322" height="19.286"/>
	</g>
	<g>
		<path class="st11" d="M156.846,94.39H99.148c-1.657,0-3-1.343-3-3V72.104c0-1.657,1.343-3,3-3h57.697c1.657,0,3,1.343,3,3V91.39
			C159.846,93.047,158.503,94.39,156.846,94.39z M102.148,88.39h51.697V75.104h-51.697V88.39z"/>
	</g>
	<g>
		<path class="st4" d="M167.773,155.359H88.227c-2.864,0-5.186,2.322-5.186,5.186v47.018c0,2.864,2.322,5.186,5.186,5.186h79.547
			c2.864,0,5.185-2.322,5.185-5.186v-47.018C172.959,157.68,170.637,155.359,167.773,155.359z"/>
	</g>
	<g>
		<path class="st5" d="M167.773,155.359H156.44c2.864,0,5.186,2.321,5.186,5.186v47.018c0,2.864-2.322,5.186-5.186,5.186h11.333
			c2.864,0,5.186-2.322,5.186-5.186v-47.018C172.959,157.68,170.637,155.359,167.773,155.359z"/>
	</g>
	<g>
		<circle class="st8" cx="128" cy="184.053" r="9"/>
	</g>
	<g>
		<path class="st11" d="M167.773,215.748H88.227c-4.514,0-8.186-3.672-8.186-8.186v-47.019c0-4.514,3.672-8.186,8.186-8.186h79.547
			c4.514,0,8.186,3.672,8.186,8.186v47.019C175.959,212.076,172.287,215.748,167.773,215.748z M88.227,158.358
			c-1.205,0-2.186,0.98-2.186,2.186v47.019c0,1.205,0.98,2.186,2.186,2.186h79.547c1.205,0,2.186-0.98,2.186-2.186v-47.019
			c0-1.205-0.98-2.186-2.186-2.186H88.227z"/>
	</g>
	<g>
		<path class="st11" d="M128,196.053c-6.617,0-12-5.383-12-12s5.383-12,12-12c6.617,0,12,5.383,12,12S134.617,196.053,128,196.053z
			 M128,178.053c-3.309,0-6,2.691-6,6s2.691,6,6,6s6-2.691,6-6S131.309,178.053,128,178.053z"/>
	</g>
	<g>
		<path class="st11" d="M127.997,94.39c-1.657,0-3-1.343-3-3v-6.355c0-1.657,1.343-3,3-3c1.657,0,3,1.343,3,3v6.355
			C130.997,93.047,129.654,94.39,127.997,94.39z"/>
	</g>
</g>
</svg>
